<mxfile host="app.diagrams.net" modified="2020-04-14T01:40:05.379Z" agent="5.0 (X11; Linux x86_64) AppleWebKit/537.36 (KHTML, like Gecko) Chrome/81.0.4044.92 Safari/537.36" etag="BeDygcRGdM3_EV2i0COL" version="12.9.11" type="github">
  <diagram id="yP4FQTdsY-qNNl01PGjK" name="Page-1">
    <mxGraphModel dx="1038" dy="1760" grid="1" gridSize="10" guides="1" tooltips="1" connect="1" arrows="1" fold="1" page="1" pageScale="1" pageWidth="827" pageHeight="1169" math="0" shadow="0">
      <root>
        <mxCell id="0" />
        <mxCell id="1" parent="0" />
        <mxCell id="8L-nOKBcuhNVsoPlVf19-2" value="开始" style="ellipse;whiteSpace=wrap;html=1;aspect=fixed;" vertex="1" parent="1">
          <mxGeometry x="250" y="40" width="50" height="50" as="geometry" />
        </mxCell>
        <mxCell id="8L-nOKBcuhNVsoPlVf19-3" value="结束" style="ellipse;whiteSpace=wrap;html=1;aspect=fixed;" vertex="1" parent="1">
          <mxGeometry x="250" y="620" width="50" height="50" as="geometry" />
        </mxCell>
        <mxCell id="8L-nOKBcuhNVsoPlVf19-4" value="接受请求" style="rounded=1;whiteSpace=wrap;html=1;" vertex="1" parent="1">
          <mxGeometry x="215" y="140" width="120" height="60" as="geometry" />
        </mxCell>
        <mxCell id="8L-nOKBcuhNVsoPlVf19-5" value="验证身份" style="rhombus;whiteSpace=wrap;html=1;" vertex="1" parent="1">
          <mxGeometry x="235" y="260" width="80" height="80" as="geometry" />
        </mxCell>
        <mxCell id="8L-nOKBcuhNVsoPlVf19-6" value="后续处理" style="rounded=1;whiteSpace=wrap;html=1;" vertex="1" parent="1">
          <mxGeometry x="215" y="400" width="120" height="60" as="geometry" />
        </mxCell>
        <mxCell id="8L-nOKBcuhNVsoPlVf19-7" value="" style="endArrow=classic;html=1;exitX=1;exitY=0.5;exitDx=0;exitDy=0;entryX=1;entryY=0.5;entryDx=0;entryDy=0;" edge="1" parent="1" source="8L-nOKBcuhNVsoPlVf19-5" target="8L-nOKBcuhNVsoPlVf19-8">
          <mxGeometry width="50" height="50" relative="1" as="geometry">
            <mxPoint x="410" y="320" as="sourcePoint" />
            <mxPoint x="460" y="270" as="targetPoint" />
            <Array as="points">
              <mxPoint x="390" y="300" />
              <mxPoint x="390" y="540" />
            </Array>
          </mxGeometry>
        </mxCell>
        <mxCell id="8L-nOKBcuhNVsoPlVf19-9" value="不通过" style="edgeLabel;html=1;align=center;verticalAlign=middle;resizable=0;points=[];" vertex="1" connectable="0" parent="8L-nOKBcuhNVsoPlVf19-7">
          <mxGeometry x="-0.8551" relative="1" as="geometry">
            <mxPoint as="offset" />
          </mxGeometry>
        </mxCell>
        <mxCell id="8L-nOKBcuhNVsoPlVf19-8" value="响应请求" style="rounded=1;whiteSpace=wrap;html=1;" vertex="1" parent="1">
          <mxGeometry x="215" y="510" width="120" height="60" as="geometry" />
        </mxCell>
        <mxCell id="8L-nOKBcuhNVsoPlVf19-10" value="" style="endArrow=classic;html=1;exitX=0.5;exitY=1;exitDx=0;exitDy=0;entryX=0.5;entryY=0;entryDx=0;entryDy=0;" edge="1" parent="1" source="8L-nOKBcuhNVsoPlVf19-5" target="8L-nOKBcuhNVsoPlVf19-6">
          <mxGeometry width="50" height="50" relative="1" as="geometry">
            <mxPoint x="120" y="390" as="sourcePoint" />
            <mxPoint x="170" y="340" as="targetPoint" />
          </mxGeometry>
        </mxCell>
        <mxCell id="8L-nOKBcuhNVsoPlVf19-12" value="通过" style="edgeLabel;html=1;align=center;verticalAlign=middle;resizable=0;points=[];" vertex="1" connectable="0" parent="8L-nOKBcuhNVsoPlVf19-10">
          <mxGeometry x="-0.5133" y="-1" relative="1" as="geometry">
            <mxPoint as="offset" />
          </mxGeometry>
        </mxCell>
        <mxCell id="8L-nOKBcuhNVsoPlVf19-11" value="" style="endArrow=classic;html=1;exitX=0.5;exitY=1;exitDx=0;exitDy=0;entryX=0.5;entryY=0;entryDx=0;entryDy=0;" edge="1" parent="1" source="8L-nOKBcuhNVsoPlVf19-4" target="8L-nOKBcuhNVsoPlVf19-5">
          <mxGeometry width="50" height="50" relative="1" as="geometry">
            <mxPoint x="110" y="300" as="sourcePoint" />
            <mxPoint x="160" y="250" as="targetPoint" />
          </mxGeometry>
        </mxCell>
        <mxCell id="8L-nOKBcuhNVsoPlVf19-13" value="" style="endArrow=classic;html=1;exitX=0.5;exitY=1;exitDx=0;exitDy=0;entryX=0.5;entryY=0;entryDx=0;entryDy=0;" edge="1" parent="1" source="8L-nOKBcuhNVsoPlVf19-6" target="8L-nOKBcuhNVsoPlVf19-8">
          <mxGeometry width="50" height="50" relative="1" as="geometry">
            <mxPoint x="50" y="510" as="sourcePoint" />
            <mxPoint x="100" y="460" as="targetPoint" />
          </mxGeometry>
        </mxCell>
        <mxCell id="8L-nOKBcuhNVsoPlVf19-14" value="" style="endArrow=classic;html=1;exitX=0.5;exitY=1;exitDx=0;exitDy=0;entryX=0.5;entryY=0;entryDx=0;entryDy=0;" edge="1" parent="1" source="8L-nOKBcuhNVsoPlVf19-2" target="8L-nOKBcuhNVsoPlVf19-4">
          <mxGeometry width="50" height="50" relative="1" as="geometry">
            <mxPoint x="70" y="220" as="sourcePoint" />
            <mxPoint x="120" y="170" as="targetPoint" />
          </mxGeometry>
        </mxCell>
        <mxCell id="8L-nOKBcuhNVsoPlVf19-15" value="" style="endArrow=classic;html=1;exitX=0.5;exitY=1;exitDx=0;exitDy=0;entryX=0.5;entryY=0;entryDx=0;entryDy=0;" edge="1" parent="1" source="8L-nOKBcuhNVsoPlVf19-8" target="8L-nOKBcuhNVsoPlVf19-3">
          <mxGeometry width="50" height="50" relative="1" as="geometry">
            <mxPoint x="110" y="600" as="sourcePoint" />
            <mxPoint x="160" y="550" as="targetPoint" />
          </mxGeometry>
        </mxCell>
        <mxCell id="8L-nOKBcuhNVsoPlVf19-16" value="用户" style="rounded=1;whiteSpace=wrap;html=1;" vertex="1" parent="1">
          <mxGeometry x="520" y="90" width="120" height="60" as="geometry" />
        </mxCell>
        <mxCell id="8L-nOKBcuhNVsoPlVf19-17" value="用户名" style="ellipse;whiteSpace=wrap;html=1;aspect=fixed;" vertex="1" parent="1">
          <mxGeometry x="650" y="20" width="70" height="70" as="geometry" />
        </mxCell>
        <mxCell id="8L-nOKBcuhNVsoPlVf19-18" value="openid" style="ellipse;whiteSpace=wrap;html=1;aspect=fixed;" vertex="1" parent="1">
          <mxGeometry x="530" y="-20" width="70" height="70" as="geometry" />
        </mxCell>
        <mxCell id="8L-nOKBcuhNVsoPlVf19-19" value="响应实体数据" style="rounded=1;whiteSpace=wrap;html=1;" vertex="1" parent="1">
          <mxGeometry x="580" y="400" width="120" height="60" as="geometry" />
        </mxCell>
        <mxCell id="8L-nOKBcuhNVsoPlVf19-20" value="车牌号" style="ellipse;whiteSpace=wrap;html=1;" vertex="1" parent="1">
          <mxGeometry x="660" y="260" width="60" height="40" as="geometry" />
        </mxCell>
        <mxCell id="8L-nOKBcuhNVsoPlVf19-21" value="VIN" style="ellipse;whiteSpace=wrap;html=1;" vertex="1" parent="1">
          <mxGeometry x="510" y="270" width="60" height="40" as="geometry" />
        </mxCell>
        <mxCell id="8L-nOKBcuhNVsoPlVf19-22" value="发动机号" style="ellipse;whiteSpace=wrap;html=1;" vertex="1" parent="1">
          <mxGeometry x="767" y="350" width="60" height="40" as="geometry" />
        </mxCell>
        <mxCell id="8L-nOKBcuhNVsoPlVf19-23" value="品牌" style="ellipse;whiteSpace=wrap;html=1;" vertex="1" parent="1">
          <mxGeometry x="767" y="430" width="60" height="40" as="geometry" />
        </mxCell>
        <mxCell id="8L-nOKBcuhNVsoPlVf19-24" value="车系" style="ellipse;whiteSpace=wrap;html=1;" vertex="1" parent="1">
          <mxGeometry x="680" y="550" width="60" height="40" as="geometry" />
        </mxCell>
        <mxCell id="8L-nOKBcuhNVsoPlVf19-25" value="年款" style="ellipse;whiteSpace=wrap;html=1;" vertex="1" parent="1">
          <mxGeometry x="510" y="530" width="60" height="40" as="geometry" />
        </mxCell>
        <mxCell id="8L-nOKBcuhNVsoPlVf19-26" value="款型" style="ellipse;whiteSpace=wrap;html=1;" vertex="1" parent="1">
          <mxGeometry x="460" y="470" width="60" height="40" as="geometry" />
        </mxCell>
        <mxCell id="8L-nOKBcuhNVsoPlVf19-27" value="指导价" style="ellipse;whiteSpace=wrap;html=1;" vertex="1" parent="1">
          <mxGeometry x="460" y="330" width="60" height="40" as="geometry" />
        </mxCell>
        <mxCell id="8L-nOKBcuhNVsoPlVf19-28" value="注册日期" style="ellipse;whiteSpace=wrap;html=1;" vertex="1" parent="1">
          <mxGeometry x="450" y="400" width="60" height="40" as="geometry" />
        </mxCell>
        <mxCell id="8L-nOKBcuhNVsoPlVf19-29" value="发动机型号" style="ellipse;whiteSpace=wrap;html=1;" vertex="1" parent="1">
          <mxGeometry x="750" y="510" width="60" height="40" as="geometry" />
        </mxCell>
        <mxCell id="8L-nOKBcuhNVsoPlVf19-30" value="排放标准" style="ellipse;whiteSpace=wrap;html=1;" vertex="1" parent="1">
          <mxGeometry x="590" y="564.5" width="60" height="40" as="geometry" />
        </mxCell>
        <mxCell id="8L-nOKBcuhNVsoPlVf19-31" value="基本配置" style="ellipse;whiteSpace=wrap;html=1;" vertex="1" parent="1">
          <mxGeometry x="730" y="280" width="60" height="40" as="geometry" />
        </mxCell>
        <mxCell id="8L-nOKBcuhNVsoPlVf19-32" value="ID" style="ellipse;whiteSpace=wrap;html=1;aspect=fixed;" vertex="1" parent="1">
          <mxGeometry x="700" y="120" width="70" height="70" as="geometry" />
        </mxCell>
        <mxCell id="8L-nOKBcuhNVsoPlVf19-33" value="ID" style="ellipse;whiteSpace=wrap;html=1;" vertex="1" parent="1">
          <mxGeometry x="580" y="260" width="60" height="40" as="geometry" />
        </mxCell>
      </root>
    </mxGraphModel>
  </diagram>
</mxfile>
